# xmcd
#
# Track frame offsets:
#	150
#	17466
#	34977
#	57094
#	80628
#	94546
#	117525
#	138692
#	156115
#	176048
#	198886
#	216139
#	237786
#
# Disc length: 3452 seconds
#
# Revision: 0
# Processed by: cddbd v1.5.2PL0 Copyright (c) Steve Scherf et al.
# Submitted via: EasyCDDAExtractor 16.0.1.1
#
DISCID=ad0d7a0d
DTITLE=Coco Montoya - Just Let Go
DYEAR=1997
DGENRE=Blues
TTITLE0=Fear No Evil
TTITLE1=What's Done Is Done
TTITLE2=Just Let Go
TTITLE3=My Side Of The Fence
TTITLE4=Cool Like Dat
TTITLE5=Do What You Want To Do
TTITLE6=Give It To A Good Man
TTITLE7=Hard Love
TTITLE8=Beginner At The Blues
TTITLE9=Mother And Daughter
TTITLE10=Nothing's Too Good For My Baby
TTITLE11=Never Seen You Cry This Way Before
TTITLE12=Sending Me Angels
EXTD=
EXTT0=
EXTT1=
EXTT2=
EXTT3=
EXTT4=
EXTT5=
EXTT6=
EXTT7=
EXTT8=
EXTT9=
EXTT10=
EXTT11=
EXTT12=
PLAYORDER=
